<svg width="20" height="20" viewBox="0 0 20 20" fill="none" xmlns="http://www.w3.org/2000/svg">
<path d="M11.7801 2.8012L10.7851 2.90071V2.90071L11.7801 2.8012ZM11.7197 2.37992L10.7617 2.66667V2.66667L11.7197 2.37992ZM11.8947 3.55464L10.966 3.9255L10.966 3.9255L11.8947 3.55464ZM13.2178 4.10269L12.8234 3.18377V3.18377L13.2178 4.10269ZM13.8316 3.65095L13.2535 2.83493L13.2252 2.855L13.1983 2.877L13.8316 3.65095ZM13.8316 3.65095L14.4096 4.46697L14.4609 4.43061L14.5073 4.3881L13.8316 3.65095ZM13.8316 3.65094L13.1983 2.87698L13.1766 2.89478L13.1558 2.91379L13.8316 3.65094ZM14.1722 3.3958L13.6975 2.51562L13.6975 2.51562L14.1722 3.3958ZM15.2067 3.44739L15.7666 2.61882L15.7666 2.61882L15.2067 3.44739ZM15.5202 3.73517L14.8131 4.44228L14.8131 4.44228L15.5202 3.73517ZM16.2648 4.47973L15.5577 5.18683V5.18683L16.2648 4.47973ZM16.5526 4.79328L17.3812 4.23341L17.3812 4.23341L16.5526 4.79328ZM16.6042 5.82779L15.724 5.35315L15.724 5.35315L16.6042 5.82779ZM16.349 6.16841L15.5751 5.53518L15.5441 5.57302L15.517 5.61371L16.349 6.16841ZM16.349 6.16842L17.123 6.80166L17.154 6.76381L17.1811 6.72312L16.349 6.16842ZM15.8973 6.7822L16.8162 7.17664L16.8162 7.17663L15.8973 6.7822ZM16.4453 8.10532L16.0744 9.034L16.0744 9.034L16.4453 8.10532ZM17.1988 8.21988L17.0993 9.21492H17.0993L17.1988 8.21988ZM17.6201 8.28033L17.3333 9.23832L17.3333 9.23833L17.6201 8.28033ZM18.3151 9.04831L19.2969 8.85829V8.85829L18.3151 9.04831ZM18.3151 10.9516L17.3333 10.7617V10.7617L18.3151 10.9516ZM17.62 11.7197L17.3333 10.7617L17.3333 10.7617L17.62 11.7197ZM17.1989 11.7801L17.0994 10.7851L17.0994 10.7851L17.1989 11.7801ZM16.4458 11.8946L16.0751 10.9658H16.0751L16.4458 11.8946ZM15.8976 13.2179L16.8165 12.8233L16.8165 12.8233L15.8976 13.2179ZM16.3491 13.8313L15.5752 14.4646L15.6068 14.5032L15.642 14.5384L16.3491 13.8313ZM16.3492 13.8313L17.1231 13.1981L17.0915 13.1595L17.0563 13.1242L16.3492 13.8313ZM16.6042 14.1717L15.724 14.6465L15.724 14.6465L16.6042 14.1717ZM16.5526 15.2065L15.724 14.6465L15.724 14.6465L16.5526 15.2065ZM15.2067 16.5522L15.7666 17.3808L15.2067 16.5522ZM14.1722 16.6038L13.6976 17.484L13.6976 17.484L14.1722 16.6038ZM13.8316 16.3487L14.4649 15.5747L14.427 15.5438L14.3863 15.5166L13.8316 16.3487ZM13.8316 16.3487L13.2069 17.1296L13.2408 17.1567L13.2769 17.1807L13.8316 16.3487ZM13.8316 16.3487L13.1983 17.1227L13.2069 17.1295L13.8316 16.3487ZM13.2178 15.8969L12.8234 16.8159L12.8234 16.8159L13.2178 15.8969ZM11.8947 16.445L12.8234 16.8159L12.8234 16.8159L11.8947 16.445ZM11.7801 17.1986L12.7607 17.3947L12.7703 17.3468L12.7752 17.2981L11.7801 17.1986ZM11.7801 17.1986L10.7996 17.0025L10.79 17.0504L10.7851 17.0991L11.7801 17.1986ZM11.7197 17.6202L10.7617 17.3333L10.7617 17.3333L11.7197 17.6202ZM10.9518 18.3151L10.7617 17.3333L10.7617 17.3333L10.9518 18.3151ZM9.04831 18.3151L8.85829 19.2969H8.85829L9.04831 18.3151ZM8.28032 17.6201L7.32232 17.9069L8.28032 17.6201ZM8.21989 17.1988L9.21492 17.0993L9.21166 17.0667L9.20628 17.0344L8.21989 17.1988ZM8.21988 17.1988L7.22485 17.2983L7.2281 17.3309L7.23349 17.3632L8.21988 17.1988ZM8.10532 16.4453L9.034 16.0744L9.03399 16.0744L8.10532 16.4453ZM6.78222 15.8973L7.17664 16.8162L6.78222 15.8973ZM6.1684 16.3491L6.79313 17.13L6.80164 17.123L6.1684 16.3491ZM6.16839 16.3491L5.54365 15.5681L5.53515 15.5751L6.16839 16.3491ZM5.82774 16.6042L5.35311 15.724L5.35311 15.724L5.82774 16.6042ZM4.79325 16.5526L5.35311 15.724L5.35311 15.724L4.79325 16.5526ZM4.47969 16.2648L3.7364 16.9338L3.75399 16.9534L3.77259 16.972L4.47969 16.2648ZM4.47968 16.2648L5.22297 15.5959L5.20538 15.5763L5.18679 15.5577L4.47968 16.2648ZM3.73514 15.5203L3.02804 16.2274H3.02804L3.73514 15.5203ZM3.44735 15.2067L2.61877 15.7666L2.61877 15.7666L3.44735 15.2067ZM3.39575 14.1722L2.51557 13.6976H2.51557L3.39575 14.1722ZM3.65092 13.8316L4.42488 14.4648L4.42703 14.4622L3.65092 13.8316ZM3.65093 13.8316L2.91377 13.1559L2.89362 13.1778L2.87481 13.201L3.65093 13.8316ZM3.65093 13.8316L4.38809 14.5073L4.40709 14.4866L4.42489 14.4648L3.65093 13.8316ZM4.10269 13.2178L5.02161 13.6122L5.02161 13.6122L4.10269 13.2178ZM3.55464 11.8947L3.9255 10.966L3.9255 10.966L3.55464 11.8947ZM2.8012 11.7801L2.6368 12.7665L2.66911 12.7719L2.7017 12.7752L2.8012 11.7801ZM2.80118 11.7801L2.96558 10.7937L2.93327 10.7883L2.90068 10.7851L2.80118 11.7801ZM2.37992 11.7197L2.09317 12.6777L2.09317 12.6777L2.37992 11.7197ZM1.68489 10.9517L0.703105 11.1417L0.703105 11.1417L1.68489 10.9517ZM1.6849 9.04824L0.703137 8.85815L1.6849 9.04824ZM2.37984 8.28034L2.09301 7.32236L2.09301 7.32236L2.37984 8.28034ZM2.8013 8.21988L2.9008 9.21491L2.94489 9.2105L2.98841 9.20221L2.8013 8.21988ZM2.80131 8.21987L2.70181 7.22484L2.65772 7.22925L2.6142 7.23754L2.80131 8.21987ZM3.55506 8.10525L3.92604 9.03389L3.92604 9.03389L3.55506 8.10525ZM4.10305 6.78228L5.02202 6.38796L5.02202 6.38796L4.10305 6.78228ZM3.65107 6.16819L4.42503 5.53495L4.40723 5.51319L4.38823 5.49247L3.65107 6.16819ZM3.65107 6.16819L2.87759 6.80201L2.89517 6.82346L2.91392 6.84391L3.65107 6.16819ZM3.65106 6.16818L2.8771 6.80142L2.87758 6.802L3.65106 6.16818ZM3.39574 5.82731L4.27597 5.35277L4.27597 5.35277L3.39574 5.82731ZM3.44732 4.793L2.61868 4.23323L2.61867 4.23323L3.44732 4.793ZM3.73528 4.47925L3.02817 3.77214L3.02817 3.77214L3.73528 4.47925ZM3.73528 4.47925L3.02818 3.77214H3.02818L3.73528 4.47925ZM4.47972 3.73481L5.18682 4.44192H5.18682L4.47972 3.73481ZM4.79329 3.44701L4.23343 2.61842L4.23343 2.61842L4.79329 3.44701ZM5.82778 3.39541L5.35315 4.27559L5.35315 4.27559L5.82778 3.39541ZM6.16849 3.65063L5.53526 4.42459L5.54148 4.42969L5.54779 4.43468L6.16849 3.65063ZM6.1685 3.65064L6.82701 2.89806L6.80849 2.88186L6.78921 2.86659L6.1685 3.65064ZM6.16851 3.65064L5.51 4.40322L5.52246 4.41412L5.53527 4.4246L6.16851 3.65064ZM6.78212 4.10232L7.17667 3.18345L7.17667 3.18345L6.78212 4.10232ZM8.10541 3.5542L7.17667 3.18345L7.17667 3.18345L8.10541 3.5542ZM8.2199 2.80109L7.22486 2.70159V2.70159L8.2199 2.80109ZM8.2803 2.38L9.23833 2.66667V2.66667L8.2803 2.38ZM9.04841 1.68487L9.23833 2.66667H9.23833L9.04841 1.68487ZM10.9517 1.68489L10.7617 2.66667L10.7617 2.66667L10.9517 1.68489ZM12.7752 2.7017C12.7577 2.527 12.7395 2.29971 12.6777 2.09317L10.7617 2.66667C10.7543 2.64186 10.7554 2.63473 10.7609 2.67592C10.767 2.72155 10.7734 2.78424 10.7851 2.90071L12.7752 2.7017ZM12.8234 3.18378C12.8433 3.23365 12.8379 3.24642 12.8236 3.14497C12.8101 3.04952 12.7968 2.91762 12.7752 2.7017L10.7851 2.90071C10.805 3.09974 10.8227 3.27906 10.8431 3.42384C10.8627 3.56261 10.8938 3.74462 10.966 3.9255L12.8234 3.18378ZM12.8234 3.18377L12.8234 3.18377L10.966 3.9255C11.383 4.96986 12.5789 5.46519 13.6123 5.02162L12.8234 3.18377ZM13.1983 2.877C13.0304 3.0144 12.9277 3.0982 12.8507 3.15619C12.7688 3.21783 12.774 3.20496 12.8234 3.18377L13.6123 5.02162C13.7912 4.94479 13.9419 4.83809 14.0539 4.75378C14.1707 4.66582 14.31 4.55157 14.4648 4.42491L13.1983 2.877ZM13.2535 2.83492L13.2535 2.83493L14.4096 4.46698L14.4096 4.46697L13.2535 2.83492ZM13.1558 2.91379L13.1558 2.91379L14.5073 4.3881L14.5073 4.38809L13.1558 2.91379ZM13.6975 2.51562C13.5078 2.61795 13.3342 2.76581 13.1983 2.87698L14.4648 4.4249C14.5554 4.35079 14.6042 4.31099 14.6409 4.28306C14.6739 4.25786 14.6696 4.26368 14.6468 4.27597L13.6975 2.51562ZM15.7666 2.61882C15.1498 2.20208 14.3527 2.16232 13.6975 2.51562L14.6468 4.27597L14.6468 4.27597L15.7666 2.61882ZM16.2274 3.02806C16.1032 2.90392 15.9452 2.73952 15.7666 2.61882L14.6468 4.27597C14.6254 4.26147 14.6217 4.25526 14.6521 4.28362C14.6857 4.31505 14.7304 4.35952 14.8131 4.44228L16.2274 3.02806ZM16.9719 3.77262L16.2274 3.02806L14.8131 4.44228L15.5577 5.18683L16.9719 3.77262ZM17.3812 4.23341C17.2605 4.05477 17.0961 3.89677 16.9719 3.77262L15.5577 5.18683C15.6405 5.2696 15.6849 5.31425 15.7164 5.3479C15.7447 5.37827 15.7385 5.37461 15.724 5.35315L17.3812 4.23341ZM17.4844 6.30243C17.8377 5.64729 17.7979 4.85015 17.3812 4.23341L15.724 5.35315L15.724 5.35315L17.4844 6.30243ZM17.123 6.80165C17.2342 6.66577 17.382 6.4922 17.4844 6.30243L15.724 5.35315C15.7363 5.33035 15.7421 5.32609 15.7169 5.35913C15.689 5.39573 15.6492 5.44459 15.5751 5.53518L17.123 6.80165ZM17.1811 6.72312L17.1811 6.72311L15.517 5.61371L15.517 5.61372L17.1811 6.72312ZM16.8162 7.17663C16.795 7.22599 16.7821 7.23119 16.8438 7.14935C16.9018 7.07235 16.9856 6.96961 17.123 6.80166L15.5751 5.53518C15.4484 5.69 15.3341 5.82935 15.2462 5.94614C15.1619 6.05809 15.0552 6.2088 14.9783 6.38777L16.8162 7.17663ZM16.8162 7.17664L14.9783 6.38777C14.5348 7.42114 15.0301 8.61694 16.0744 9.034L16.8162 7.17664ZM17.2983 7.22485C17.0824 7.20325 16.9505 7.18987 16.855 7.17643C16.7535 7.16214 16.7663 7.15672 16.8162 7.17664L16.0744 9.034C16.2553 9.10624 16.4373 9.13735 16.5761 9.15689C16.7209 9.17728 16.9002 9.19502 17.0993 9.21492L17.2983 7.22485ZM17.9069 7.32233C17.7003 7.26049 17.473 7.24232 17.2983 7.22485L17.0993 9.21492C17.2158 9.22657 17.2785 9.23297 17.3241 9.23911C17.3653 9.24465 17.3582 9.24575 17.3333 9.23832L17.9069 7.32233ZM19.2969 8.85829C19.1555 8.12753 18.6199 7.53577 17.9069 7.32233L17.3333 9.23833V9.23833L19.2969 8.85829ZM19.3333 9.47354C19.3333 9.29796 19.3379 9.06998 19.2969 8.85829L17.3333 9.23832C17.3284 9.21289 17.3302 9.20591 17.3316 9.24745C17.3332 9.29347 17.3333 9.35649 17.3333 9.47354H19.3333ZM19.3333 10.5266V9.47354H17.3333V10.5266H19.3333ZM19.2969 11.1416C19.3379 10.93 19.3333 10.7021 19.3333 10.5266H17.3333C17.3333 10.6436 17.3332 10.7066 17.3316 10.7526C17.3302 10.7941 17.3284 10.7871 17.3333 10.7617L19.2969 11.1416ZM17.9067 12.6777C18.6199 12.4643 19.1555 11.8724 19.2969 11.1416L17.3333 10.7617L17.3333 10.7617L17.9067 12.6777ZM17.2984 12.7752C17.473 12.7577 17.7002 12.7395 17.9067 12.6777L17.3333 10.7617C17.3581 10.7543 17.3653 10.7554 17.3241 10.7609C17.2785 10.767 17.2158 10.7734 17.0994 10.7851L17.2984 12.7752ZM16.8165 12.8233C16.7666 12.8432 16.7539 12.8378 16.8553 12.8235C16.9507 12.8101 17.0826 12.7967 17.2984 12.7752L17.0994 10.7851C16.9004 10.805 16.7212 10.8227 16.5765 10.8431C16.4378 10.8626 16.2559 10.8937 16.0751 10.9658L16.8165 12.8233ZM16.8165 12.8233L16.8165 12.8233L16.0751 10.9658C15.0304 11.3828 14.5349 12.579 14.9788 13.6125L16.8165 12.8233ZM17.1231 13.1981C16.9858 13.0302 16.902 12.9276 16.8441 12.8506C16.7825 12.7688 16.7953 12.774 16.8165 12.8233L14.9788 13.6125C15.0556 13.7914 15.1622 13.942 15.2465 14.0539C15.3344 14.1706 15.4486 14.3098 15.5752 14.4646L17.1231 13.1981ZM17.0563 13.1242L17.0563 13.1242L15.642 14.5384L15.642 14.5384L17.0563 13.1242ZM17.0563 13.1242L17.0563 13.1242L15.642 14.5384L15.6421 14.5384L17.0563 13.1242ZM17.4843 13.697C17.382 13.5074 17.2342 13.3339 17.1231 13.1981L15.5752 14.4646C15.6493 14.5551 15.689 14.6039 15.717 14.6405C15.7422 14.6735 15.7363 14.6693 15.724 14.6465L17.4843 13.697ZM17.3811 15.7664C17.798 15.1496 17.8377 14.3523 17.4843 13.697L15.724 14.6465L17.3811 15.7664ZM16.972 16.2269C17.0961 16.1028 17.2604 15.9449 17.3811 15.7664L15.724 14.6465C15.7385 14.625 15.7448 14.6214 15.7164 14.6517C15.685 14.6854 15.6405 14.73 15.5578 14.8127L16.972 16.2269ZM16.2274 16.9716L16.972 16.2269L15.5578 14.8127L14.8132 15.5574L16.2274 16.9716ZM15.7666 17.3808C15.9453 17.2601 16.1032 17.0957 16.2274 16.9716L14.8132 15.5574C14.7304 15.6401 14.6858 15.6846 14.6521 15.716C14.6218 15.7444 14.6254 15.7382 14.6469 15.7237L15.7666 17.3808ZM13.6976 17.484C14.3527 17.8373 15.1499 17.7976 15.7666 17.3808L14.6469 15.7237L14.6469 15.7237L13.6976 17.484ZM13.1984 17.1227C13.3342 17.2338 13.5078 17.3817 13.6976 17.484L14.6469 15.7237C14.6697 15.736 14.6739 15.7418 14.6409 15.7166C14.6043 15.6887 14.5554 15.6489 14.4649 15.5747L13.1984 17.1227ZM13.2769 17.1807L13.2769 17.1807L14.3863 15.5166L14.3863 15.5166L13.2769 17.1807ZM13.2069 17.1295L13.2069 17.1296L14.4563 15.5678L14.4563 15.5678L13.2069 17.1295ZM12.8234 16.8159C12.7741 16.7947 12.7689 16.7818 12.8507 16.8434C12.9277 16.9014 13.0304 16.9852 13.1984 17.1226L14.4648 15.5747C14.31 15.4481 14.1707 15.3338 14.0539 15.2459C13.942 15.1616 13.7913 15.0548 13.6123 14.978L12.8234 16.8159ZM12.8234 16.8159H12.8234L13.6123 14.978C12.5789 14.5345 11.3831 15.0298 10.966 16.0741L12.8234 16.8159ZM12.7752 17.2981C12.7968 17.0821 12.8102 16.9502 12.8236 16.8547C12.8379 16.7532 12.8433 16.766 12.8234 16.8159L10.966 16.0741C10.8938 16.255 10.8627 16.4371 10.8431 16.5758C10.8228 16.7206 10.805 16.9 10.7851 17.0991L12.7752 17.2981ZM12.7607 17.3947L12.7607 17.3947L10.7996 17.0025L10.7996 17.0025L12.7607 17.3947ZM12.6776 17.907C12.7395 17.7004 12.7577 17.4729 12.7752 17.2981L10.7851 17.0991C10.7735 17.2157 10.767 17.2784 10.7609 17.3241C10.7554 17.3653 10.7542 17.3582 10.7617 17.3333L12.6776 17.907ZM11.1419 19.2969C11.8725 19.1554 12.4642 18.62 12.6776 17.907L10.7617 17.3333L10.7617 17.3333L11.1419 19.2969ZM10.5264 19.3333C10.702 19.3333 10.9301 19.3379 11.1419 19.2969L10.7617 17.3333C10.7871 17.3284 10.7941 17.3302 10.7526 17.3316C10.7065 17.3332 10.6435 17.3333 10.5264 17.3333V19.3333ZM9.47354 19.3333H10.5264V17.3333H9.47354V19.3333ZM8.85829 19.2969C9.06998 19.3379 9.29796 19.3333 9.47354 19.3333V17.3333C9.35649 17.3333 9.29347 17.3332 9.24745 17.3316C9.20592 17.3302 9.2129 17.3284 9.23833 17.3333L8.85829 19.2969ZM7.32232 17.9069C7.53577 18.6199 8.12753 19.1555 8.85829 19.2969L9.23833 17.3333L9.23833 17.3333L7.32232 17.9069ZM7.22485 17.2983C7.24232 17.473 7.26049 17.7003 7.32232 17.9069L9.23833 17.3333C9.24575 17.3582 9.24465 17.3653 9.23911 17.3241C9.23297 17.2785 9.22657 17.2158 9.21492 17.0993L7.22485 17.2983ZM7.23349 17.3632L7.23349 17.3632L9.20628 17.0344L9.20628 17.0344L7.23349 17.3632ZM7.23349 17.3632L7.23349 17.3632L9.20628 17.0344L9.20628 17.0344L7.23349 17.3632ZM7.17664 16.8162C7.15672 16.7663 7.16214 16.7535 7.17643 16.855C7.18987 16.9505 7.20325 17.0824 7.22485 17.2983L9.21492 17.0993C9.19502 16.9002 9.17728 16.7209 9.15689 16.5761C9.13735 16.4373 9.10623 16.2553 9.034 16.0744L7.17664 16.8162ZM7.17664 16.8162L9.03399 16.0744C8.61693 15.0301 7.42115 14.5348 6.38779 14.9783L7.17664 16.8162ZM6.80164 17.123C6.9696 16.9856 7.07234 16.9018 7.14934 16.8438C7.23119 16.7821 7.22599 16.795 7.17664 16.8162L6.38779 14.9783C6.20881 15.0552 6.05809 15.1619 5.94614 15.2462C5.82934 15.3342 5.68999 15.4484 5.53516 15.5751L6.80164 17.123ZM6.79308 17.1299L6.7931 17.1299L5.54371 15.5682L5.54369 15.5682L6.79308 17.1299ZM6.30237 17.4844C6.49215 17.3821 6.66573 17.2342 6.80162 17.123L5.53515 15.5751C5.44456 15.6492 5.3957 15.689 5.35909 15.717C5.32606 15.7422 5.33031 15.7363 5.35311 15.724L6.30237 17.4844ZM4.23339 17.3812C4.85012 17.7979 5.64724 17.8377 6.30238 17.4844L5.35311 15.724H5.35311L4.23339 17.3812ZM3.77259 16.972C3.89673 17.0961 4.05474 17.2605 4.2334 17.3812L5.35311 15.724C5.37457 15.7385 5.37823 15.7448 5.34786 15.7164C5.31422 15.685 5.26956 15.6405 5.18679 15.5577L3.77259 16.972ZM3.73638 16.9338L3.7364 16.9338L5.22299 15.5959L5.22297 15.5959L3.73638 16.9338ZM3.02804 16.2274L3.77257 16.9719L5.18679 15.5577L4.44225 14.8132L3.02804 16.2274ZM2.61877 15.7666C2.73948 15.9452 2.90388 16.1032 3.02804 16.2274L4.44225 14.8132C4.35948 14.7304 4.31502 14.6858 4.28359 14.6521C4.25522 14.6218 4.26143 14.6254 4.27593 14.6469L2.61877 15.7666ZM2.51557 13.6976C2.16229 14.3527 2.20205 15.1499 2.61877 15.7666L4.27593 14.6469L4.27593 14.6469L2.51557 13.6976ZM2.87696 13.1984C2.76578 13.3342 2.61791 13.5078 2.51557 13.6976L4.27593 14.6469C4.26364 14.6697 4.25782 14.6739 4.28303 14.6409C4.31096 14.6043 4.35076 14.5554 4.42488 14.4648L2.87696 13.1984ZM2.87481 13.201L2.87481 13.201L4.42703 14.4622L4.42704 14.4622L2.87481 13.201ZM2.91378 13.1559L2.91377 13.1559L4.38808 14.5073L4.38809 14.5073L2.91378 13.1559ZM3.18377 12.8234C3.20495 12.774 3.21782 12.7688 3.15618 12.8507C3.09819 12.9277 3.01439 13.0304 2.87697 13.1983L4.42489 14.4648C4.55156 14.31 4.66581 14.1707 4.75377 14.0539C4.83808 13.9419 4.94479 13.7912 5.02161 13.6122L3.18377 12.8234ZM3.18377 12.8234L3.18377 12.8234L5.02161 13.6122C5.46518 12.5789 4.96986 11.3831 3.9255 10.966L3.18377 12.8234ZM2.7017 12.7752C2.91761 12.7968 3.04952 12.8101 3.14497 12.8236C3.24642 12.8379 3.23364 12.8433 3.18377 12.8234L3.9255 10.966C3.74463 10.8938 3.56261 10.8627 3.42383 10.8431C3.27906 10.8227 3.09974 10.805 2.9007 10.7851L2.7017 12.7752ZM2.63678 12.7665L2.6368 12.7665L2.9656 10.7937L2.96558 10.7937L2.63678 12.7665ZM2.09317 12.6777C2.29971 12.7395 2.52698 12.7577 2.70168 12.7752L2.90068 10.7851C2.78422 10.7734 2.72154 10.767 2.67591 10.7609C2.63473 10.7554 2.64186 10.7543 2.66667 10.7617L2.09317 12.6777ZM0.703105 11.1417C0.844533 11.8725 1.38009 12.4643 2.09317 12.6777L2.66667 10.7617L2.66667 10.7617L0.703105 11.1417ZM0.666672 10.5265C0.666672 10.7021 0.662141 10.93 0.703105 11.1417L2.66667 10.7617C2.67159 10.7871 2.66978 10.7941 2.66837 10.7526C2.66681 10.7065 2.66667 10.6435 2.66667 10.5265H0.666672ZM0.666672 9.47363V10.5265H2.66667V9.47363H0.666672ZM0.703137 8.85815C0.662137 9.06991 0.666672 9.29798 0.666672 9.47363H2.66667C2.66667 9.35653 2.66681 9.29349 2.66837 9.24745C2.66979 9.2059 2.6716 9.21289 2.66667 9.23833L0.703137 8.85815ZM2.09301 7.32236C1.38006 7.53583 0.844602 8.1275 0.703137 8.85815L2.66667 9.23833L2.09301 7.32236ZM2.7018 7.22484C2.52702 7.24232 2.29964 7.2605 2.09301 7.32236L2.66667 9.23833C2.64185 9.24576 2.63472 9.24465 2.67592 9.23911C2.72157 9.23297 2.78429 9.22656 2.9008 9.21491L2.7018 7.22484ZM2.6142 7.23754L2.61419 7.23754L2.98841 9.20221L2.98842 9.20221L2.6142 7.23754ZM3.18408 7.17661C3.23397 7.15668 3.24676 7.16211 3.14526 7.1764C3.04977 7.18985 2.91782 7.20324 2.70181 7.22484L2.90081 9.21491C3.09993 9.195 3.27933 9.17725 3.42417 9.15686C3.563 9.1373 3.7451 9.10618 3.92604 9.03389L3.18408 7.17661ZM3.18408 7.17661L3.18408 7.17661L3.92604 9.03389C4.97017 8.61678 5.46539 7.42121 5.02202 6.38796L3.18408 7.17661ZM2.87712 6.80143C3.0146 6.96946 3.09845 7.07226 3.15647 7.1493C3.21815 7.23119 3.20527 7.22599 3.18408 7.17661L5.02202 6.38796C4.94519 6.20889 4.83843 6.05811 4.75408 5.94611C4.66608 5.82927 4.55177 5.68985 4.42503 5.53495L2.87712 6.80143ZM2.91392 6.84391L2.91392 6.84392L4.38823 5.49247L4.38822 5.49246L2.91392 6.84391ZM2.87758 6.802L2.87759 6.80201L4.42455 5.53436L4.42454 5.53436L2.87758 6.802ZM2.5155 6.30185C2.61788 6.49175 2.76585 6.66544 2.8771 6.80142L4.42502 5.53494C4.35085 5.44429 4.31102 5.3954 4.28307 5.35876C4.25784 5.32569 4.26367 5.32995 4.27597 5.35277L2.5155 6.30185ZM2.61867 4.23323C2.20212 4.84988 2.16237 5.64681 2.5155 6.30185L4.27597 5.35277V5.35277L2.61867 4.23323ZM3.02817 3.77214C2.90395 3.89637 2.73944 4.05446 2.61868 4.23323L4.27597 5.35277C4.26146 5.37425 4.25524 5.3779 4.28363 5.34752C4.31508 5.31385 4.35957 5.26917 4.44239 5.18636L3.02817 3.77214ZM3.02818 3.77214L3.02817 3.77214L4.44239 5.18636L4.44239 5.18635L3.02818 3.77214ZM3.77261 3.0277L3.02818 3.77214L4.44239 5.18635L5.18682 4.44192L3.77261 3.0277ZM4.23343 2.61842C4.05477 2.73913 3.89677 2.90355 3.77261 3.0277L5.18682 4.44192C5.26959 4.35915 5.31425 4.31468 5.3479 4.28325C5.37827 4.25488 5.37461 4.26109 5.35315 4.27559L4.23343 2.61842ZM6.30241 2.51523C5.64728 2.16195 4.85016 2.20171 4.23343 2.61842L5.35315 4.27559H5.35315L6.30241 2.51523ZM6.80173 2.87668C6.66581 2.76547 6.4922 2.61756 6.30241 2.51522L5.35315 4.27559C5.33034 4.26329 5.32608 4.25747 5.35914 4.28269C5.39576 4.31063 5.44464 4.35045 5.53526 4.42459L6.80173 2.87668ZM6.78921 2.86659L6.7892 2.86659L5.54779 4.43468L5.5478 4.43469L6.78921 2.86659ZM6.82701 2.89807L6.82701 2.89806L5.51 4.40322L5.51 4.40322L6.82701 2.89807ZM7.17667 3.18345C7.22601 3.20463 7.23121 3.2175 7.14937 3.15585C7.07238 3.09787 6.96966 3.01407 6.80174 2.87669L5.53527 4.4246C5.69006 4.55125 5.82936 4.66547 5.94612 4.75341C6.05802 4.83769 6.20867 4.94438 6.38757 5.02119L7.17667 3.18345ZM7.17667 3.18345L7.17667 3.18345L6.38757 5.02119C7.42107 5.46497 8.61714 4.96954 9.03414 3.92495L7.17667 3.18345ZM7.22486 2.70159C7.20328 2.91741 7.1899 3.04925 7.17647 3.14466C7.16219 3.24607 7.15677 3.2333 7.17667 3.18345L9.03414 3.92495C9.10631 3.74415 9.1374 3.56221 9.15693 3.42349C9.17731 3.27878 9.19504 3.09954 9.21493 2.9006L7.22486 2.70159ZM7.32227 2.09333C7.26049 2.29979 7.24232 2.52697 7.22486 2.70159L9.21493 2.9006C9.22657 2.78419 9.23298 2.72153 9.23911 2.67591C9.24464 2.63475 9.24575 2.64187 9.23833 2.66667L7.32227 2.09333ZM8.85849 0.703072C8.12757 0.84446 7.53568 1.38012 7.32227 2.09333L9.23833 2.66667L9.23833 2.66667L8.85849 0.703072ZM9.47342 0.666672C9.29793 0.666672 9.07007 0.662145 8.85849 0.703072L9.23833 2.66667C9.21291 2.67159 9.20593 2.66978 9.24744 2.66837C9.29344 2.66681 9.35643 2.66667 9.47342 2.66667V0.666672ZM10.5265 0.666672H9.47342V2.66667H10.5265V0.666672ZM11.1417 0.703106C10.93 0.662141 10.7021 0.666672 10.5265 0.666672V2.66667C10.6435 2.66667 10.7065 2.66681 10.7526 2.66837C10.7941 2.66978 10.7871 2.67159 10.7617 2.66667L11.1417 0.703106ZM12.6777 2.09317C12.4643 1.38009 11.8725 0.844533 11.1417 0.703105L10.7617 2.66667L10.7617 2.66667L12.6777 2.09317ZM12.3333 10C12.3333 11.2887 11.2887 12.3333 10 12.3333V14.3333C12.3932 14.3333 14.3333 12.3932 14.3333 10H12.3333ZM10 7.66667C11.2887 7.66667 12.3333 8.71134 12.3333 10H14.3333C14.3333 7.60677 12.3932 5.66667 10 5.66667V7.66667ZM7.66667 10C7.66667 8.71134 8.71134 7.66667 10 7.66667V5.66667C7.60677 5.66667 5.66667 7.60677 5.66667 10H7.66667ZM10 12.3333C8.71134 12.3333 7.66667 11.2887 7.66667 10H5.66667C5.66667 12.3932 7.60677 14.3333 10 14.3333V12.3333Z" fill="#A9A9A9"/>
</svg>
