<svg width="20" height="20" viewBox="0 0 20 20" fill="none" xmlns="http://www.w3.org/2000/svg">
<path d="M1.66667 10L0.885803 9.37531L0.386047 10L0.885803 10.6247L1.66667 10ZM9.16667 11C9.71896 11 10.1667 10.5523 10.1667 10C10.1667 9.44773 9.71896 9.00001 9.16667 9.00001V11ZM4.21914 5.20865L0.885803 9.37531L2.44754 10.6247L5.78087 6.45804L4.21914 5.20865ZM0.885803 10.6247L4.21914 14.7914L5.78087 13.542L2.44754 9.37531L0.885803 10.6247ZM1.66667 11H9.16667V9.00001H1.66667V11Z" fill="#A9A9A9"/>
<path d="M8.86794 16.3335L8.13524 17.0141L8.86794 16.3335ZM8.74984 16.1941L9.54159 15.5833L8.74984 16.1941ZM17.3959 16.9704L16.7084 16.2443L17.3959 16.9704ZM17.1431 17.1846L16.5398 16.3871L17.1431 17.1846ZM17.1431 2.81537L16.5398 3.61293L17.1431 2.81537ZM17.3959 3.02957L16.7084 3.75573L17.3959 3.02957ZM8.86665 3.66786L9.59999 4.34772L8.86665 3.66786ZM8.751 3.80438L9.54217 4.41598L8.751 3.80438ZM17.3333 8.52395V11.476H19.3333V8.52395H17.3333ZM9.33334 6.7766V6.61397H7.33334V6.7766H9.33334ZM11.7322 16.2193C10.9634 16.0912 10.4723 16.0077 10.1108 15.9032C9.77303 15.8055 9.66214 15.7192 9.60064 15.653L8.13524 17.0141C8.53776 17.4474 9.03154 17.673 9.55509 17.8244C10.0549 17.969 10.6817 18.0718 11.4034 18.1921L11.7322 16.2193ZM7.33334 13.3883C7.33334 14.1197 7.33174 14.7548 7.39217 15.2714C7.45547 15.8127 7.59683 16.3367 7.95809 16.8049L9.54159 15.5833C9.48635 15.5117 9.41945 15.3881 9.37863 15.0391C9.33493 14.6654 9.33334 14.1675 9.33334 13.3883H7.33334ZM9.60064 15.653C9.5799 15.6306 9.5602 15.6074 9.54159 15.5833L7.95809 16.8049C8.01392 16.8773 8.07303 16.9471 8.13524 17.0141L9.60064 15.653ZM17.3333 11.476C17.3333 13.0401 17.3312 14.1127 17.2249 14.9099C17.1218 15.6835 16.9394 16.0255 16.7084 16.2443L18.0835 17.6966C18.7898 17.0278 19.0762 16.1582 19.2074 15.1743C19.3354 14.214 19.3333 12.9832 19.3333 11.476H17.3333ZM11.4034 18.1921C12.8906 18.44 14.1046 18.6445 15.0732 18.6761C16.0654 18.7085 16.9704 18.569 17.7463 17.9822L16.5398 16.3871C16.2861 16.5789 15.9188 16.7026 15.1384 16.6771C14.3343 16.6509 13.2755 16.4766 11.7322 16.2193L11.4034 18.1921ZM16.7084 16.2443C16.6549 16.2949 16.5986 16.3426 16.5398 16.3871L17.7463 17.9822C17.8639 17.8932 17.9764 17.7979 18.0835 17.6966L16.7084 16.2443ZM11.7337 3.78038C13.2765 3.52325 14.3349 3.34898 15.1387 3.32278C15.9188 3.29735 16.2861 3.42099 16.5398 3.61293L17.7463 2.01781C16.9705 1.43101 16.0657 1.2915 15.0736 1.32384C14.1053 1.35541 12.8916 1.55982 11.4049 1.8076L11.7337 3.78038ZM19.3333 8.52395C19.3333 7.0168 19.3354 5.78602 19.2074 4.82571C19.0762 3.84181 18.7898 2.97221 18.0835 2.30342L16.7084 3.75573C16.9394 3.97448 17.1218 4.31646 17.2249 5.09006C17.3312 5.88725 17.3333 6.95988 17.3333 8.52395H19.3333ZM16.5398 3.61293C16.5986 3.65738 16.6549 3.70506 16.7084 3.75573L18.0835 2.30342C17.9764 2.20208 17.8639 2.10673 17.7463 2.01781L16.5398 3.61293ZM11.4049 1.8076C10.6824 1.92802 10.0548 2.03099 9.55447 2.17582C9.03026 2.32755 8.53599 2.55364 8.13331 2.988L9.59999 4.34772C9.66159 4.28128 9.77253 4.19479 10.1105 4.09696C10.4724 3.99223 10.964 3.90867 11.7337 3.78038L11.4049 1.8076ZM9.33334 6.61397C9.33334 5.8336 9.33493 5.33493 9.37875 4.96079C9.41969 4.61131 9.48675 4.48766 9.54217 4.41598L7.95983 3.19279C7.59758 3.6614 7.45582 4.18611 7.39233 4.72813C7.33174 5.24549 7.33334 5.88147 7.33334 6.61397H9.33334ZM8.13331 2.988C8.07245 3.05364 8.01457 3.12197 7.95983 3.19279L9.54217 4.41598C9.56041 4.39238 9.57971 4.3696 9.59999 4.34772L8.13331 2.988Z" fill="#A9A9A9"/>
</svg>
