<svg width="20" height="20" viewBox="0 0 20 20" fill="none" xmlns="http://www.w3.org/2000/svg">
<path d="M17.5 10.8333H18.5H17.5ZM16.6332 4.94713L17.622 5.09617L16.6332 4.94713ZM14.1138 7.46649L14.2628 8.45532L14.1138 7.46649ZM12.634 13.6667L13.5 13.1667L12.634 13.6667ZM13 14.0327L12.5 14.8987L13 14.0327ZM12.634 11.3333L11.7679 10.8333L12.634 11.3333ZM13 10.9673L12.5 10.1013L13 10.9673ZM17.2071 7.79289L17.9142 7.08579L17.2071 7.79289ZM15.5 17.5V18.5V17.5ZM17.2071 17.2071L17.9142 17.9142L17.2071 17.2071ZM6.50001 17.5V18.5V17.5ZM3.08579 16.9142L2.37868 17.6213L3.08579 16.9142ZM16.2412 3.33892L16.0921 4.32775L16.2412 3.33892ZM16.6611 3.75881L17.6499 3.60977L16.6611 3.75881ZM4.58334 4.33333L16.0714 4.33333V2.33333L4.58334 2.33333V4.33333ZM6.50001 18.5L15.5 18.5V16.5L6.50001 16.5V18.5ZM1.50001 5.41667L1.50001 13.5L3.50001 13.5L3.50001 5.41667H1.50001ZM15.5 6.5L4.58334 6.5V8.5L15.5 8.5V6.5ZM16.5 14.1667V15.5L18.5 15.5L18.5 14.1667H16.5ZM16.5 9.5V10.8333H18.5L18.5 9.5H16.5ZM14.1667 15.1667H17.5V13.1667H14.1667V15.1667ZM16.5 10.8333L16.5 14.1667H18.5L18.5 10.8333H16.5ZM17.5 9.83333H14.1667L14.1667 11.8333H17.5V9.83333ZM13.0952 6.5H12.5V8.5H13.0952V6.5ZM15.6667 3.92857C15.6667 4.49578 15.6639 4.66856 15.6443 4.79808L17.622 5.09617C17.6695 4.78108 17.6667 4.42303 17.6667 3.92857H15.6667ZM13.0952 8.5C13.5897 8.5 13.9477 8.50282 14.2628 8.45532L13.9648 6.47766C13.8352 6.49718 13.6624 6.5 13.0952 6.5V8.5ZM15.6443 4.79808C15.5135 5.66578 14.8324 6.34688 13.9648 6.47766L14.2628 8.45532C15.9982 8.19376 17.3604 6.83155 17.622 5.09617L15.6443 4.79808ZM11.5 12.5C11.5 12.7931 11.499 13.0798 11.5208 13.3202C11.5439 13.5744 11.5984 13.8731 11.7679 14.1667L13.5 13.1667C13.5355 13.2282 13.5231 13.2551 13.5127 13.1397C13.501 13.0105 13.5 12.8299 13.5 12.5H11.5ZM14.1667 13.1667C13.8367 13.1667 13.6561 13.1657 13.527 13.154C13.4115 13.1435 13.4385 13.1311 13.5 13.1667L12.5 14.8987C12.7936 15.0682 13.0923 15.1228 13.3464 15.1458C13.5868 15.1676 13.8735 15.1667 14.1667 15.1667V13.1667ZM11.7679 14.1667C11.9435 14.4707 12.196 14.7232 12.5 14.8987L13.5 13.1667L11.7679 14.1667ZM13.5 12.5C13.5 12.1701 13.501 11.9895 13.5127 11.8603C13.5231 11.7449 13.5355 11.7718 13.5 11.8333L11.7679 10.8333C11.5984 11.1269 11.5439 11.4256 11.5208 11.6798C11.499 11.9202 11.5 12.2069 11.5 12.5H13.5ZM14.1667 9.83333C13.8735 9.83333 13.5868 9.83238 13.3464 9.85416C13.0923 9.8772 12.7936 9.93178 12.5 10.1013L13.5 11.8333C13.4385 11.8689 13.4115 11.8565 13.527 11.846C13.6561 11.8343 13.8367 11.8333 14.1667 11.8333L14.1667 9.83333ZM13.5 11.8333H13.5L12.5 10.1013C12.196 10.2768 11.9435 10.5293 11.7679 10.8333L13.5 11.8333ZM15.5 8.5C15.9997 8.5 16.2738 8.50212 16.464 8.52769C16.6254 8.5494 16.5703 8.57032 16.5 8.5L17.9142 7.08579C17.551 6.72257 17.1137 6.59705 16.7305 6.54553C16.3761 6.49788 15.9431 6.5 15.5 6.5V8.5ZM18.5 9.5C18.5 9.05687 18.5021 8.62392 18.4545 8.26948C18.403 7.88628 18.2774 7.449 17.9142 7.08579L16.5 8.5C16.4297 8.42968 16.4506 8.37455 16.4723 8.53598C16.4979 8.72617 16.5 9.00033 16.5 9.5H18.5ZM15.5 18.5C15.9431 18.5 16.3761 18.5021 16.7305 18.4545C17.1137 18.403 17.551 18.2774 17.9142 17.9142L16.5 16.5C16.5703 16.4297 16.6254 16.4506 16.464 16.4723C16.2738 16.4979 15.9997 16.5 15.5 16.5V18.5ZM16.5 15.5C16.5 15.9997 16.4979 16.2738 16.4723 16.464C16.4506 16.6254 16.4297 16.5703 16.5 16.5L17.9142 17.9142C18.2774 17.551 18.403 17.1137 18.4545 16.7305C18.5021 16.3761 18.5 15.9431 18.5 15.5L16.5 15.5ZM6.50001 16.5C5.52893 16.5 4.90122 16.4979 4.43871 16.4357C4.00497 16.3774 3.86902 16.2832 3.7929 16.2071L2.37868 17.6213C2.88835 18.131 3.5167 18.3297 4.17221 18.4179C4.79896 18.5021 5.58547 18.5 6.50001 18.5V16.5ZM1.50001 13.5C1.50001 14.4145 1.49788 15.201 1.58215 15.8278C1.67028 16.4833 1.86902 17.1117 2.37868 17.6213L3.7929 16.2071C3.71677 16.131 3.62263 15.995 3.56431 15.5613C3.50213 15.0988 3.50001 14.4711 3.50001 13.5L1.50001 13.5ZM1.50001 5.41667C1.50001 7.11954 2.88046 8.5 4.58334 8.5V6.5C3.98503 6.5 3.50001 6.01498 3.50001 5.41667H1.50001ZM16.0714 4.33333C16.0943 4.33333 16.1109 4.33334 16.125 4.33341C16.1391 4.33348 16.1462 4.3336 16.1495 4.33369C16.1527 4.33378 16.148 4.33372 16.1385 4.33303C16.1284 4.33228 16.1123 4.33078 16.0921 4.32775L16.3902 2.35009C16.2604 2.33052 16.1235 2.33333 16.0714 2.33333V4.33333ZM17.6667 3.92857C17.6667 3.87647 17.6695 3.7396 17.6499 3.60977L15.6723 3.90786C15.6692 3.88773 15.6677 3.87165 15.667 3.86146C15.6663 3.85196 15.6662 3.84729 15.6663 3.8505C15.6664 3.85383 15.6665 3.86094 15.6666 3.87502C15.6667 3.88912 15.6667 3.90572 15.6667 3.92857H17.6667ZM16.0921 4.32775C15.8752 4.29505 15.7049 4.12478 15.6723 3.90786L17.6499 3.60977C17.5518 2.959 17.041 2.44817 16.3902 2.35009L16.0921 4.32775ZM3.50001 5.41667C3.50001 4.81836 3.98503 4.33333 4.58334 4.33333V2.33333C2.88046 2.33333 1.50001 3.71379 1.50001 5.41667H3.50001Z" fill="#A9A9A9"/>
</svg>
