<svg width="253" height="63" viewBox="0 0 253 63" fill="none" xmlns="http://www.w3.org/2000/svg">
<path d="M29.1703 12.1312V4.37793H3.8703V57.6472H29.1703V49.8939C23.9876 49.8939 19.0171 47.9046 15.3524 44.3636C11.6877 40.8227 9.62888 36.0202 9.62888 31.0126C9.62888 26.0049 11.6877 21.2023 15.3524 17.6614C19.0171 14.1205 23.9876 12.1312 29.1703 12.1312Z" fill="#2C3131"/>
<path d="M29.1719 12.1309V49.8936C34.3546 49.8936 39.3251 47.9043 42.9898 44.3633C46.6546 40.8224 48.7133 36.0199 48.7133 31.0123C48.7133 26.0046 46.6546 21.202 42.9898 17.6611C39.3251 14.1202 34.3546 12.1309 29.1719 12.1309Z" fill="#2752E7"/>
<path d="M74.0427 47.9307C72.7588 47.9307 71.5567 47.6726 70.4365 47.1566C69.3288 46.6405 68.4226 45.7909 67.7177 44.6077C67.0506 43.4623 66.717 41.977 66.717 40.1519V27.3886H72.5322V38.4904C72.5322 39.9756 72.9035 41.033 73.6462 41.6623C74.3888 42.2917 75.2888 42.6063 76.3461 42.6063C77.9069 42.4049 79.046 41.8259 79.7635 40.8693C80.481 39.9127 80.8397 38.7673 80.8397 37.4331V27.3886H86.6172V47.7041H80.8397V44.1168C79.3544 46.6594 77.0887 47.9307 74.0427 47.9307ZM98.0647 47.7041H92.2495V27.3886H98.0647V31.0514C99.4996 28.534 101.74 27.2375 104.786 27.162V32.6374L103.955 32.5996C102.986 32.5996 102.049 32.7695 101.142 33.1094C100.249 33.4367 99.5122 33.9968 98.9332 34.7898C98.3542 35.5828 98.0647 36.6275 98.0647 37.924V47.7041Z" fill="#2752E7"/>
<path d="M120.042 48.1195C116.065 48.1195 112.761 46.8167 110.13 44.2112C107.499 41.6057 106.184 38.3393 106.184 34.4122C106.184 30.5857 107.524 27.3697 110.206 24.7642C112.887 22.1587 116.241 20.8559 120.269 20.8559C124.196 20.8559 127.67 22.3286 130.691 25.2739L127.217 29.541C125.102 27.2249 122.811 26.0669 120.344 26.0669C118.104 26.0669 116.203 26.8285 114.642 28.3515C113.082 29.8745 112.301 31.8696 112.301 34.3366C112.301 35.3814 112.471 36.4009 112.811 37.3953C113.151 38.3897 113.654 39.2834 114.321 40.0763C114.989 40.8693 115.826 41.505 116.833 41.9833C117.84 42.449 119.01 42.6819 120.344 42.6819C122.711 42.6819 125.002 41.6371 127.217 39.5477L130.729 43.3616C127.431 46.5335 123.869 48.1195 120.042 48.1195ZM139.993 47.7041H134.178V27.3886H139.993V31.0514C141.428 28.534 143.668 27.2375 146.714 27.162V32.6374L145.884 32.5996C144.914 32.5996 143.977 32.7695 143.07 33.1094C142.177 33.4367 141.44 33.9968 140.861 34.7898C140.282 35.5828 139.993 36.6275 139.993 37.924V47.7041ZM153.226 55.2941C151.086 55.2941 149.248 54.6396 147.712 53.3305L150.167 49.139C151.023 49.8691 151.904 50.2341 152.81 50.2341C154.044 50.2341 154.937 49.6299 155.491 48.4216L156.058 47.2887L147.637 27.3886H153.641L158.965 41.3602L163.761 27.3886H169.576L160.664 49.9698C159.23 53.5193 156.75 55.2941 153.226 55.2941ZM178.127 55.0298H172.312V27.3886H178.127V30.3717C179.663 28.2571 181.803 27.1998 184.547 27.1998C185.78 27.1998 186.97 27.4012 188.115 27.804C189.261 28.1942 190.28 28.8109 191.174 29.6542C192.067 30.4976 192.779 31.5801 193.307 32.9017C193.836 34.2234 194.1 35.8093 194.1 37.6596C194.1 40.6302 193.27 43.0846 191.608 45.0231C189.947 46.9615 187.631 47.9307 184.66 47.9307C181.84 47.9307 179.663 46.8734 178.127 44.7587V55.0298ZM183.187 43.0972C184.849 43.0972 186.101 42.5497 186.945 41.4546C187.788 40.3595 188.21 39.0316 188.21 37.4708C188.21 35.9855 187.794 34.6828 186.963 33.5625C186.133 32.4423 184.874 31.8822 183.187 31.8822C181.501 31.8822 180.236 32.436 179.392 33.5437C178.549 34.6513 178.127 35.9604 178.127 37.4708C178.127 39.3589 178.624 40.7686 179.619 41.7001C180.613 42.6315 181.803 43.0972 183.187 43.0972ZM205.224 47.9684C203.412 47.9684 201.895 47.4712 200.674 46.4769C199.453 45.4825 198.843 43.8902 198.843 41.7001V32.2975H196.011V28.2948H198.843V22.7062H204.62V28.2948H210.133V32.3353H204.62V40.7183C204.62 42.2791 205.237 43.0595 206.471 43.0595C207.276 43.0595 208.22 42.8077 209.303 42.3043L210.511 46.5713C208.9 47.5027 207.138 47.9684 205.224 47.9684ZM223.043 47.9307C220.677 47.9307 218.682 47.4649 217.058 46.5335C215.359 45.5391 214.113 44.2552 213.32 42.6819C212.527 41.1085 212.13 39.3966 212.13 37.5463C212.13 35.2807 212.615 33.38 213.584 31.8444C214.629 30.2458 215.982 29.0752 217.643 28.3326C219.305 27.5774 221.105 27.1998 223.043 27.1998C226.139 27.1998 228.726 28.0809 230.803 29.8431C232.88 31.6052 233.918 34.173 233.918 37.5463C233.918 38.8806 233.704 40.1707 233.276 41.4169C232.861 42.6504 232.206 43.7581 231.313 44.7398C230.432 45.7216 229.305 46.502 227.933 47.081C226.561 47.6475 224.931 47.9307 223.043 47.9307ZM223.043 43.2105C224.428 43.2105 225.617 42.7385 226.611 41.7945C227.606 40.8504 228.103 39.4596 228.103 37.6219C228.103 35.7842 227.606 34.3933 226.611 33.4492C225.617 32.5052 224.428 32.0332 223.043 32.0332C221.633 32.0332 220.431 32.5052 219.437 33.4492C218.442 34.3933 217.945 35.7842 217.945 37.6219C217.945 39.4596 218.442 40.8504 219.437 41.7945C220.431 42.7385 221.633 43.2105 223.043 43.2105Z" fill="#2C3131"/>
<path d="M244.54 25.0659C246.834 25.0659 248.694 23.269 248.694 21.0525C248.694 18.836 246.834 17.0391 244.54 17.0391C242.246 17.0391 240.387 18.836 240.387 21.0525C240.387 23.269 242.246 25.0659 244.54 25.0659Z" fill="#2C3131"/>
</svg>
