<svg width="134" height="135" viewBox="0 0 134 135" fill="none" xmlns="http://www.w3.org/2000/svg">
<g clip-path="url(#clip0_2_6706)">
<path d="M67 134.974C104.003 134.974 134 104.977 134 67.9736C134 30.9706 104.003 0.973633 67 0.973633C29.9969 0.973633 0 30.9706 0 67.9736C0 104.977 29.9969 134.974 67 134.974Z" fill="#172852"/>
<path d="M53.9689 30.9163C61.8146 27.9817 70.6451 27.975 78.6382 30.387C89.0434 33.6164 97.827 41.4688 102.417 51.3245C103.683 54.1318 104.896 57.0597 105.016 60.1819C99.1671 56.7917 92.7552 54.5941 86.3299 52.5908C76.0521 48.8857 65.2919 46.3129 55.5635 41.2209C53.2989 39.8675 50.4112 38.4806 49.7948 35.6599C49.5469 33.2211 52.1264 31.861 53.9689 30.9163Z" fill="#FFD83D"/>
<path d="M30.2842 54.6347C32.5555 48.4707 36.2807 42.7489 41.3392 38.5078C42.6256 49.0871 47.128 59.3113 54.565 67.0029C63.4827 76.269 76.1859 81.9573 89.1102 81.7429C94.2424 81.9037 99.2607 80.7178 104.266 79.7597C99.3411 97.5549 79.8374 109.367 61.7675 106.526C50.8599 105.133 40.7898 98.6738 34.7129 89.5551C27.8588 79.4783 26.1302 66.0984 30.2842 54.6347Z" fill="#FFD83D"/>
<path d="M86.3294 52.5903C92.7547 54.5936 99.1666 56.7912 105.016 60.1814L105.411 60.3891C105.954 64.4694 106.349 68.6301 105.625 72.7171C102.684 71.4709 100.299 69.28 97.8065 67.3437C93.0093 63.3505 88.1116 58.7811 86.3294 52.5903Z" fill="#FF6F03"/>
</g>
<defs>
<clipPath id="clip0_2_6706">
<rect width="134" height="134" fill="white" transform="translate(0 0.973633)"/>
</clipPath>
</defs>
</svg>
