<svg width="150" height="151" viewBox="0 0 150 151" fill="none" xmlns="http://www.w3.org/2000/svg">
<g clip-path="url(#clip0_2_6705)">
<path fill-rule="evenodd" clip-rule="evenodd" d="M74.7066 0.973633C89.5402 0.973633 104.041 5.37231 116.374 13.6134C128.708 21.8545 138.321 33.5679 143.998 47.2724C149.674 60.9768 151.159 76.0568 148.265 90.6054C145.372 105.154 138.229 118.518 127.74 129.007C117.251 139.496 103.887 146.639 89.3384 149.533C74.7898 152.426 59.7098 150.941 46.0053 145.265C32.3009 139.588 20.5875 129.975 12.3464 117.641C4.10528 105.308 -0.293396 90.8072 -0.293396 75.9736C-0.293396 56.0824 7.60837 37.0059 21.6736 22.9406C35.7388 8.8754 54.8154 0.973633 74.7066 0.973633V0.973633Z" fill="white"/>
<path fill-rule="evenodd" clip-rule="evenodd" d="M74.7069 17.0781L94.4387 46.5599L114.171 76.0486L74.7069 95.9304L35.2433 75.9736L54.9751 46.4849L74.7069 17.0781ZM74.7069 103.874L37.4319 83.9849L74.7069 134.869L111.982 83.9849L74.7069 103.874Z" fill="#343434"/>
<path fill-rule="evenodd" clip-rule="evenodd" d="M74.7067 17.0781L94.4385 46.4849L114.17 75.9736L74.7067 61.0759V17.0781Z" fill="#343434"/>
<path fill-rule="evenodd" clip-rule="evenodd" d="M74.7067 103.874L112.057 83.9854L74.7067 134.944V103.874Z" fill="#313131"/>
<path fill-rule="evenodd" clip-rule="evenodd" d="M74.7067 61.0757L114.17 75.9734L74.7067 95.8552V61.0757Z" fill="#151515"/>
<path fill-rule="evenodd" clip-rule="evenodd" d="M74.7069 17.0781L54.9751 46.4849L35.2433 75.9736L74.7069 61.0759V17.0781Z" fill="#8C8C8C"/>
<path fill-rule="evenodd" clip-rule="evenodd" d="M74.7066 103.874L37.4316 83.9854L74.7066 134.944V103.874Z" fill="#8A8A8A"/>
<path fill-rule="evenodd" clip-rule="evenodd" d="M74.7069 61.0757L35.2433 75.9734L74.7069 95.8552V61.0757Z" fill="#353535"/>
</g>
<defs>
<clipPath id="clip0_2_6705">
<rect width="150" height="150" fill="white" transform="translate(0 0.973633)"/>
</clipPath>
</defs>
</svg>
