<svg width="150" height="151" viewBox="0 0 150 151" fill="none" xmlns="http://www.w3.org/2000/svg">
<path fill-rule="evenodd" clip-rule="evenodd" d="M74.7066 0.973633C89.5402 0.973633 104.041 5.37231 116.374 13.6134C128.708 21.8545 138.321 33.5679 143.998 47.2724C149.674 60.9768 151.159 76.0568 148.265 90.6054C145.372 105.154 138.229 118.518 127.74 129.007C117.251 139.496 103.887 146.639 89.3384 149.533C74.7898 152.426 59.7098 150.941 46.0053 145.265C32.3009 139.588 20.5875 129.975 12.3464 117.641C4.10528 105.308 -0.293396 90.8072 -0.293396 75.9736C-0.293396 56.0824 7.60837 37.0059 21.6736 22.9406C35.7388 8.8754 54.8154 0.973633 74.7066 0.973633V0.973633Z" fill="white"/>
</svg>
